<?xml version="1.0" encoding="utf-8"?>
<!-- Generator: Adobe Illustrator 15.0.0, SVG Export Plug-In . SVG Version: 6.00 Build 0)  -->
<!DOCTYPE svg PUBLIC "-//W3C//DTD SVG 1.1//EN" "http://www.w3.org/Graphics/SVG/1.1/DTD/svg11.dtd">
<svg version="1.1" id="Layer_1" xmlns="http://www.w3.org/2000/svg" xmlns:xlink="http://www.w3.org/1999/xlink" x="0px" y="0px"
	 width="500px" height="75px" viewBox="0 0 500 75" enable-background="new 0 0 500 75" xml:space="preserve">
<g>
	<g>
		<path fill="#685A52" d="M20.833,44.106l-8.396,0.112c-1.153,0-2.133-0.061-2.939-0.183c0-1.247-0.122-2.817-0.366-4.711h0.928
			c0.065,0.422,0.202,1.05,0.408,1.884c0.113,0.497,0.225,0.891,0.337,1.182c0.432,0.178,0.9,0.305,1.406,0.38
			c0.506,0.075,1.355,0.112,2.545,0.112c1.678,0,3.192-0.052,4.542-0.154c0.047-0.9,0.07-2.218,0.07-3.952
			c0-1.847-0.023-3.239-0.07-4.177c-1.153-0.047-2.044-0.07-2.672-0.07c-1.538,0-2.574,0.057-3.108,0.169
			c-0.3,0.065-0.504,0.183-0.612,0.352s-0.171,0.601-0.19,1.294L12.677,37.3h-0.984l0.07-3.276l-0.07-2.925v-0.268h0.844
			l0.084,0.984c0.065,0.656,0.141,1.041,0.225,1.153c0.084,0.112,0.277,0.188,0.577,0.225c0.788,0.103,1.739,0.155,2.855,0.155
			c0.918,0,1.926-0.028,3.023-0.084l-0.057-4.753c-0.019-0.909-0.047-1.884-0.084-2.925c-0.338-0.028-0.896-0.061-1.674-0.099
			c-0.778-0.037-1.279-0.056-1.504-0.056c-1.05,0-2.1,0.066-3.15,0.197c-0.619,0.075-1.186,0.221-1.702,0.436
			c-0.131,0.788-0.192,1.66-0.183,2.616h-0.886c-0.15-1.866-0.234-2.841-0.253-2.925c-0.057-0.394-0.16-0.858-0.31-1.393
			c0.825-0.103,1.702-0.154,2.63-0.154c0.918,0,2.395,0.014,4.43,0.042l4.247,0.07l4.008-0.084v0.9
			c-1.116,0.019-1.793,0.068-2.032,0.148c-0.239,0.08-0.413,0.202-0.521,0.366s-0.176,0.691-0.204,1.582
			c-0.028,1.219-0.042,2.465-0.042,3.74v7.187c0,0.899,0.028,1.969,0.084,3.206c0.038,0.797,0.103,1.289,0.197,1.477
			c0.056,0.122,0.15,0.211,0.281,0.267c0.31,0.141,0.956,0.216,1.94,0.226v0.886C22.183,44.144,20.955,44.106,20.833,44.106z"/>
	</g>
</g>
<g>
	<g>
		<path fill="#685A52" d="M22.475,25.136v-0.9c1.884,0.056,3.375,0.084,4.472,0.084c0.731,0,1.51-0.009,2.334-0.028l2.208-0.07
			c0.244-0.009,0.469-0.014,0.675-0.014c1.491,0,2.663,0.164,3.516,0.492s1.519,0.851,1.997,1.568s0.717,1.535,0.717,2.454
			c0,0.825-0.199,1.646-0.598,2.461c-0.398,0.816-0.978,1.507-1.737,2.074c-0.759,0.567-1.552,0.973-2.376,1.217
			c-0.562,0.169-1.2,0.253-1.913,0.253c-0.6,0-18.847-0.065-19.541-0.197l-0.295-1.054c0.834,0.188,19.09,0.281,19.569,0.281
			c0.703,0,1.371-0.171,2.004-0.513c0.633-0.341,1.125-0.856,1.477-1.544s0.527-1.449,0.527-2.281c0-0.805-0.171-1.533-0.514-2.183
			c-0.342-0.65-0.862-1.145-1.561-1.481c-0.699-0.337-1.545-0.505-2.539-0.505c-0.891,0-1.847,0.159-2.869,0.478
			c-0.084,0.994-0.126,2.55-0.126,4.669v7.087c0,1.275,0.014,2.518,0.042,3.727c0.028,0.891,0.096,1.421,0.204,1.59
			c0.108,0.168,0.281,0.293,0.52,0.372c0.239,0.08,0.917,0.129,2.032,0.147v0.9c-1.734-0.075-3.009-0.112-3.825-0.112
			c-0.318,0-1.786,0.037-4.401,0.112v-0.9c1.106-0.019,1.781-0.067,2.025-0.147c0.244-0.079,0.413-0.189,0.506-0.33
			c0.112-0.188,0.183-0.643,0.211-1.364c0.009-0.197,0.028-1.528,0.056-3.994v-6.511c0-1.275-0.014-2.521-0.042-3.74
			c-0.028-0.891-0.096-1.418-0.204-1.582s-0.281-0.286-0.52-0.366C24.268,25.204,23.591,25.155,22.475,25.136z"/>
	</g>
</g>
<rect x="4.5" y="15" fill="none" stroke="#685A52" stroke-miterlimit="10" width="38.4" height="38.4"/>
<rect x="7.7" y="18.2" fill="none" stroke="#685A52" stroke-miterlimit="10" width="32" height="32"/>
<text transform="matrix(1 0 0 1 60.8999 44.2002)" fill="#685A52" font-family="'Times-Roman'" font-size="28.8">EarlyPrint Library</text>
<rect x="-5" y="-39" fill="#FFFFFF" width="747" height="44"/>
<rect x="-5" y="64" fill="#FFFFFF" width="779" height="73"/>
</svg>
