<?xml version="1.0" encoding="utf-8"?>
<!-- Generator: Adobe Illustrator 15.0.0, SVG Export Plug-In . SVG Version: 6.00 Build 0)  -->
<!DOCTYPE svg PUBLIC "-//W3C//DTD SVG 1.1//EN" "http://www.w3.org/Graphics/SVG/1.1/DTD/svg11.dtd">
<svg version="1.1" id="Layer_1" xmlns="http://www.w3.org/2000/svg" xmlns:xlink="http://www.w3.org/1999/xlink" x="0px" y="0px"
	 width="500px" height="75px" viewBox="0 0 500 75" enable-background="new 0 0 500 75" xml:space="preserve">
<rect y="-57" fill="#FFFFFF" width="934" height="55"/>
<rect y="72" fill="#FFFFFF" width="973" height="91"/>
<g>
	<path fill="#4C4541" d="M29.416,48.883l-10.494,0.141c-1.441,0-2.666-0.076-3.674-0.229c0-1.559-0.152-3.521-0.457-5.889h1.16
		c0.082,0.527,0.252,1.312,0.51,2.355c0.141,0.621,0.281,1.113,0.422,1.477c0.539,0.223,1.125,0.381,1.758,0.475
		s1.693,0.141,3.182,0.141c2.098,0,3.99-0.064,5.678-0.193c0.059-1.125,0.088-2.771,0.088-4.939c0-2.309-0.029-4.049-0.088-5.221
		c-1.441-0.059-2.555-0.088-3.34-0.088c-1.922,0-3.217,0.07-3.885,0.211c-0.375,0.082-0.63,0.229-0.765,0.439
		s-0.214,0.75-0.237,1.617l-0.053,1.195h-1.23l0.088-4.096l-0.088-3.656v-0.334h1.055l0.105,1.23
		c0.082,0.82,0.176,1.301,0.281,1.441s0.346,0.234,0.721,0.281c0.984,0.129,2.174,0.193,3.568,0.193
		c1.148,0,2.408-0.035,3.779-0.105l-0.07-5.941c-0.023-1.137-0.059-2.355-0.105-3.656c-0.422-0.035-1.119-0.076-2.092-0.123
		s-1.6-0.07-1.881-0.07c-1.312,0-2.625,0.082-3.938,0.246c-0.773,0.094-1.482,0.275-2.127,0.545c-0.164,0.984-0.24,2.074-0.229,3.27
		h-1.107c-0.188-2.332-0.293-3.551-0.316-3.656c-0.07-0.492-0.199-1.072-0.387-1.74c1.031-0.129,2.127-0.193,3.287-0.193
		c1.148,0,2.994,0.018,5.537,0.053l5.309,0.088l5.01-0.105v1.125c-1.395,0.023-2.241,0.085-2.54,0.185s-0.516,0.252-0.65,0.457
		s-0.22,0.864-0.255,1.978c-0.035,1.523-0.053,3.082-0.053,4.676v8.982c0,1.125,0.035,2.461,0.105,4.008
		c0.047,0.996,0.129,1.611,0.246,1.846c0.07,0.152,0.188,0.264,0.352,0.334c0.387,0.176,1.195,0.27,2.426,0.281v1.107
		C31.104,48.93,29.568,48.883,29.416,48.883z"/>
</g>
<g>
	<path fill="#4C4541" d="M31.469,25.17v-1.125c2.355,0.07,4.219,0.105,5.59,0.105c0.914,0,1.887-0.012,2.918-0.035l2.76-0.088
		c0.305-0.012,0.586-0.018,0.844-0.018c1.863,0,3.328,0.205,4.395,0.615s1.898,1.063,2.496,1.96s0.896,1.919,0.896,3.067
		c0,1.031-0.249,2.057-0.747,3.076s-1.222,1.884-2.171,2.593s-1.939,1.216-2.971,1.521c-0.703,0.211-1.5,0.316-2.391,0.316
		c-0.75,0-23.559-0.082-24.426-0.246l-0.369-1.318c1.043,0.234,23.863,0.352,24.461,0.352c0.879,0,1.714-0.213,2.505-0.641
		c0.791-0.427,1.406-1.07,1.846-1.93s0.659-1.811,0.659-2.852c0-1.006-0.214-1.916-0.642-2.729s-1.078-1.43-1.951-1.852
		s-1.931-0.632-3.173-0.632c-1.113,0-2.309,0.199-3.586,0.598c-0.105,1.242-0.158,3.188-0.158,5.836v8.859
		c0,1.594,0.018,3.146,0.053,4.658c0.035,1.113,0.12,1.775,0.255,1.986s0.352,0.366,0.65,0.466s1.146,0.161,2.54,0.185v1.125
		c-2.168-0.094-3.762-0.141-4.781-0.141c-0.398,0-2.232,0.047-5.502,0.141v-1.125c1.383-0.023,2.227-0.085,2.531-0.185
		s0.516-0.237,0.633-0.413c0.141-0.234,0.229-0.803,0.264-1.705c0.012-0.246,0.035-1.91,0.07-4.992v-8.139
		c0-1.594-0.018-3.152-0.053-4.676c-0.035-1.113-0.12-1.772-0.255-1.978s-0.352-0.357-0.65-0.457S32.863,25.193,31.469,25.17z"/>
</g>
<rect x="9" y="12.5" fill="none" stroke="#4C4541" stroke-width="3" stroke-miterlimit="10" width="48" height="48"/>
<rect x="13" y="16.5" fill="none" stroke="#4C4541" stroke-miterlimit="10" width="40" height="40"/>
<text transform="matrix(1 0 0 1 73.5 48)" fill="#4C4541" font-family="'Times-Roman'" font-size="36">EarlyPrint Library</text>
<rect x="25.5" y="-55" fill="#FFFFFF" width="934" height="55"/>
</svg>
